<?xml version="1.0" encoding="UTF-8" standalone="no"?>
<!DOCTYPE svg PUBLIC "-//W3C//DTD SVG 1.1//EN" "http://www.w3.org/Graphics/SVG/1.1/DTD/svg11.dtd">
<!-- Создано Microsoft Visio, экспорт SVG chartbtc.svg Страница-1 -->
<svg xmlns="http://www.w3.org/2000/svg" xmlns:xlink="http://www.w3.org/1999/xlink" xmlns:ev="http://www.w3.org/2001/xml-events"
		xmlns:v="http://schemas.microsoft.com/visio/2003/SVGExtensions/" width="3.35687in" height="3.35687in"
		viewBox="0 0 241.695 241.695" xml:space="preserve" color-interpolation-filters="sRGB" class="st2">
	<v:documentProperties v:langID="1049" v:metric="true" v:viewMarkup="false"/>

	<style type="text/css">
	<![CDATA[
		.st1 {fill:#bf9000;stroke:none;stroke-linecap:round;stroke-linejoin:round;stroke-width:0.75}
		.st2 {fill:none;fill-rule:evenodd;font-size:12px;overflow:visible;stroke-linecap:square;stroke-miterlimit:3}
	]]>
	</style>

	<g v:mID="0" v:index="1" v:groupContext="foregroundPage">
		<title>Страница-1</title>
		<v:pageProperties v:drawingScale="0.0393701" v:pageScale="0.0393701" v:drawingUnits="24" v:shadowOffsetX="8.50394"
				v:shadowOffsetY="-8.50394"/>
		<g id="shape12-1" v:mID="12" v:groupContext="shape" transform="translate(0.375,-0.375)">
			<title>Лист.12</title>
			<path d="M240.94 85.61 L136.31 200.25 L76.79 113.93 L0 198.13 L0 213.35 A28.3465 28.3465 -180 0 0 28.35 241.69 L212.6
						 241.69 A28.3465 28.3465 -180 0 0 240.94 213.35 L240.94 85.61 Z" class="st1"/>
		</g>
		<g id="shape15-3" v:mID="15" v:groupContext="shape" transform="translate(0.375,-84.2979)">
			<title>Лист.15</title>
			<path d="M240.94 123.01 L240.94 113.02 A28.3465 28.3465 -180 0 0 212.6 84.67 L28.35 84.67 A28.3465 28.3465 -180 0 0 -0
						 113.02 L0 241.69 L81.49 152.42 L136.31 236.21 L240.94 123.01 Z" class="st1"/>
		</g>
	</g>
</svg>
